<?xml version="1.0" standalone="no"?><!DOCTYPE svg PUBLIC "-//W3C//DTD SVG 1.1//EN" "http://www.w3.org/Graphics/SVG/1.1/DTD/svg11.dtd"><svg t="1670838549088" class="icon" viewBox="0 0 1024 1024" version="1.1" xmlns="http://www.w3.org/2000/svg" p-id="12466" xmlns:xlink="http://www.w3.org/1999/xlink" width="200" height="200"><path d="M830.71 517.23C801.2 509 697.2 491 615.45 486.58 686 444.56 770 379.84 792.53 357.7c19.74-19.37 32.8-43.2 36.79-67.1s-1.64-45.22-15.88-59.73c-29.29-29.85-86.38-21.53-127.22 18.55-26 25.5-116.63 135.33-156.57 208.2 8.72-79.87-11-237.1-21-275.71-12.66-49-49-83.31-85.32-83.31a56.4 56.4 0 0 0-14.09 1.78c-40.49 10.45-61.82 64.05-47.53 119.45 9.64 37.37 65 185 109.69 251.76C402 425.6 270.9 370.71 234.82 360.66c-55.17-15.35-109.12 5-120.33 45.31s24.55 85.58 79.69 100.9c29.51 8.21 133.51 26.23 215.25 30.65-70.5 42-154.51 106.74-177.07 128.88-19.74 19.37-32.8 43.2-36.79 67.1s1.64 45.22 15.88 59.73c29.28 29.85 86.38 21.53 127.21-18.55 26-25.5 116.64-135.33 156.58-208.2-8.73 79.87 11 237.1 21 275.71 12.66 49 49 83.31 85.31 83.31a56.54 56.54 0 0 0 14.1-1.78c40.49-10.45 61.81-64.05 47.53-119.45-9.65-37.37-65-185-109.7-251.76 69.47 46 200.51 100.88 236.6 110.93 55.16 15.35 109.11-5 120.32-45.31s-24.56-85.58-79.69-100.9z" fill="#F275F2" p-id="12467"></path><path d="M613.32 420.12c-9.87-10.05-29.06-7.22-42.86 6.33-12.6 12.36-59.23 70.32-59.8 88-8.9-15.48-77.41-45.28-94.43-50-18.63-5.18-36.8 1.63-40.57 15.2s8.27 28.78 26.91 34c17 4.73 90.51 16.13 106.13 7.78-9 15.45-0.51 89.67 3.9 106.77 4.83 18.73 19.81 31.06 33.45 27.54s20.79-21.55 16-40.28c-4.41-17.1-31.29-86.46-46.33-95.8 17.85 0 77.91-44.4 90.52-56.77 13.76-13.58 16.95-32.71 7.08-42.77z" fill="#B0B0FF" p-id="12468"></path></svg>